# xmcd
#
# Track frame offsets: 
#        150
#        12350
#        23500
#        35732
#        47100
#        60212
#        72032
#        82825
#        93950
#        104037
#        116150
#        126942
#        139557
#        151625
#        162050
#        174172
#        186725
#        197840
#        209675
#        221117
#        231282
#        242747
#        256555
#        269487
#        279125
#
# Disc length: 3839 seconds
#
# Revision: 2
# Processed by: cddbd v1.5.2PL0 Copyright (c) Steve Scherf et al.
# Submitted via: ExactAudioCopyFreeDBPlugin 1.0
#
DISCID=590efd19
DTITLE=Various Artist - The Magic Of Detroit
DYEAR=1900
DGENRE=Soul
TTITLE0=Melvin Davis - Find A Quiet Place (And Be Lonely)
TTITLE1=Connie Van Dyke - Don't Do Nothing I Would'nt Do
TTITLE2=Lee Rogers - Jack The Playboy
TTITLE3=The Fabulous Peps - My Love Loooks Good On You
TTITLE4=Buddy Lamp - You've Got That Lovin Touch
TTITLE5=Dee Edwards - His Majesty My Love
TTITLE6=Don Heart - They Love To Be Loved
TTITLE7=The Precisions -  I Wanna Tell My Baby
TTITLE8=Lee Rogers - Walk On By
TTITLE9=Lillian DuPree - Hide And Seek
TTITLE10=Cody Black -  I Will Give You Love
TTITLE11=The Magictones - Me And My Baby
TTITLE12=Ronnie Love - Detroit, Michigan
TTITLE13=Lee Rogers - The Same Things That Make You Laugh
TTITLE14=Silky Hargreaves - Hurt By Love
TTITLE15=Chuck Hently -  I'm Gonna Try To Get Over
TTITLE16=Buddy Lamp -  Next Best Thing
TTITLE17=Lee Rogers - Love And War
TTITLE18=Dee Edwards - Too Careless With My Love
TTITLE19=Cody Black - Too Many Irons In The Fire
TTITLE20=The Fabulous Peps - With These Eyes
TTITLE21=Lee Rogers - You're The Cream Of The Crop
TTITLE22=The Magictones - Together We Shall Overcome
TTITLE23=Lee Rogers - Cracked Up Over You
TTITLE24=International Kansas City Playboys - Quittin' Time
EXTD=
EXTT0=
EXTT1=
EXTT2=
EXTT3=
EXTT4=
EXTT5=
EXTT6=
EXTT7=
EXTT8=
EXTT9=
EXTT10=
EXTT11=
EXTT12=
EXTT13=
EXTT14=
EXTT15=
EXTT16=
EXTT17=
EXTT18=
EXTT19=
EXTT20=
EXTT21=
EXTT22=
EXTT23=
EXTT24=
PLAYORDER=
